<svg viewBox="0 0 209.65 37.2" xmlns="http://www.w3.org/2000/svg"><g transform="translate(-201.08 -377.38)"><path d="m397.38 378.51-7.33 18.94-7.28-18.94h-13.34v1a26 26 0 0 1 0 32.88v1h9.85v-22.69l8.79 22.71h4l8.85-22.71v22.71h9.84v-34.9z" fill="#2a2e33"/><path d="m330.32 396c0-10.94 8.25-18.6 19.25-18.6s19.19 7.6 19.19 18.6-8.2 18.6-19.19 18.6-19.25-7.67-19.25-18.6zm29 0c0-5.88-3.83-10.41-9.76-10.41s-9.81 4.53-9.81 10.41 3.83 10.41 9.81 10.41 9.77-4.6 9.77-10.41z" fill="#1c9dfc"/><g fill="#2a2e33"><path d="m242.29 413.41v-34.9h9v34.91z"/><path d="m319.8 413.41-1.73-5h-13.76l-1.73 5h-10.2l13.14-34.91h11.31l13.17 34.91zm-8.64-26-4.45 13.14h8.9z"/><path d="m237.64 393.32h-18v7.3h8.25a8.54 8.54 0 0 1 -8.11 5.29 9.63 9.63 0 0 1 -9.69-9.79c0-5.64 4-9.89 9.33-9.89a9.15 9.15 0 0 1 7.6 3.83l.18.23 6.77-5.23-.19-.24a18.67 18.67 0 0 0 -14.64-6.82 17.69 17.69 0 0 0 -18.06 18.11c0 10.24 7.81 18 18.16 18a18.81 18.81 0 0 0 12.69-4.89c3.89-3.52 5.78-8 5.78-13.73 0-.31 0-1.14-.05-1.82z"/><path d="m292.44 393.32h-18v7.3h8.25a8.55 8.55 0 0 1 -8.11 5.29 9.63 9.63 0 0 1 -9.68-9.79c0-5.64 4-9.89 9.33-9.89a9.15 9.15 0 0 1 7.6 3.83l.18.23 6.77-5.23-.19-.24a18.67 18.67 0 0 0 -14.65-6.82 17.69 17.69 0 0 0 -18.06 18.11c0 10.24 7.81 18 18.16 18a18.81 18.81 0 0 0 12.69-4.89c3.89-3.52 5.78-8 5.78-13.73 0-.31 0-1.14-.05-1.82z"/></g></g></svg>